<?xml version="1.0" encoding="UTF-8"?>
<svg id="Layer_1" data-name="Layer 1" xmlns="http://www.w3.org/2000/svg" xmlns:xlink="http://www.w3.org/1999/xlink" viewBox="0 0 1373.73 1373.73">
  <defs>
    <style>
      .cls-1 {
        clip-path: url(#clippath);
      }

      .cls-2 {
        fill: none;
      }

      .cls-2, .cls-3 {
        stroke-width: 0px;
      }
    </style>
    <symbol id="arrow-long-symbol" viewBox="0 0 1280.23 602.35">
      <path class="cls-3" d="m1274.21,278.01c11.58,23.17,5.79,46.33-11.58,63.71l-249.05,243.26c-23.17,23.17-57.92,23.17-81.09,0-23.17-23.17-23.17-57.92,0-81.09h0l144.8-144.8H57.92c-34.75,0-57.92-23.17-57.92-57.92s23.17-57.92,57.92-57.92h1019.37l-144.8-144.8c-23.17-23.17-23.17-57.92,0-81.09s57.92-23.17,81.09,0l249.05,237.47c5.79,5.79,11.58,11.58,11.58,23.17Z"/>
    </symbol>
    <clipPath id="clippath">
      <rect class="cls-2" x="112.06" y="227.02" width="1149.6" height="919.68"/>
    </clipPath>
  </defs>
  <g class="cls-1">
    <use id="arrow-long-white" width="1280.23" height="602.35" transform="translate(112.06 949.55) scale(.9 -.9)" xlink:href="#arrow-long-symbol"/>
  </g>
</svg>