<?xml version="1.0" encoding="UTF-8"?>
<svg id="Layer_1" data-name="Layer 1" xmlns="http://www.w3.org/2000/svg" xmlns:xlink="http://www.w3.org/1999/xlink" viewBox="0 0 1373.73 1373.73">
  <defs>
    <style>
      .cls-1 {
        stroke-width: 0px;
      }
    </style>
    <symbol id="search-symbol" viewBox="0 0 1023.48 1019.86">
      <path class="cls-1" d="m1016.2,41.25l-305.74,305.74c150.45,169.86,135.89,427.07-33.97,572.66s-422.22,131.03-572.66-33.97C-46.63,720.68-32.07,458.62,137.79,313.02c155.3-135.89,383.39-135.89,538.69,0L982.22,7.28c9.71-9.71,24.27-9.71,33.97,0h0c9.71,9.71,9.71,24.27,0,33.97h0ZM55.29,613.91c0,198.98,160.15,359.13,354.27,359.13s359.13-160.15,359.13-354.27c0-92.21-38.82-184.42-101.91-252.36h0c-135.89-140.74-363.98-140.74-504.72-4.85-67.94,63.09-106.77,155.3-106.77,252.36Z"/>
    </symbol>
  </defs>
  <use id="search-gray" width="1023.48" height="1019.86" transform="translate(175.13 1196.79) scale(1 -1)" xlink:href="#search-symbol"/>
</svg>