<?xml version="1.0" encoding="UTF-8"?>
<svg id="Layer_1" data-name="Layer 1" xmlns="http://www.w3.org/2000/svg" xmlns:xlink="http://www.w3.org/1999/xlink" viewBox="0 0 1373.73 1373.73">
  <defs>
    <style>
      .cls-1 {
        stroke-width: 0px;
      }
    </style>
    <symbol id="delete-symbol" viewBox="0 0 788.9 1024">
      <g>
        <path class="cls-1" d="m762.78,856.82h-167.18l-52.24,151.51c-5.22,10.45-15.67,15.67-26.12,15.67h-245.55c-15.67,0-26.12-5.22-26.12-15.67l-52.24-151.51H26.12c-15.67,0-26.12-10.45-26.12-26.12s10.45-26.12,26.12-26.12h31.35V130.61C57.47,57.47,114.94,0,188.08,0h412.73c73.14,0,130.61,57.47,130.61,130.61v673.96h31.35c15.67,0,26.12,10.45,26.12,26.12s-15.67,26.12-26.12,26.12Zm-475.43,114.94h214.2l41.8-114.94H245.55l41.8,114.94ZM679.18,130.61c0-41.8-36.57-78.37-78.37-78.37H188.08c-41.8,0-78.37,36.57-78.37,78.37v673.96h569.47V130.61Z"/>
        <path class="cls-1" d="m318.69,736.65c-15.67,0-26.12-15.67-26.12-26.12V177.63c0-15.67,10.45-26.12,26.12-26.12s26.12,10.45,26.12,26.12v532.9c-5.22,15.67-15.67,26.12-26.12,26.12Z"/>
        <path class="cls-1" d="m470.2,736.65c-15.67,0-26.12-15.67-26.12-26.12V177.63c0-15.67,10.45-26.12,26.12-26.12s26.12,10.45,26.12,26.12v532.9c0,15.67-10.45,26.12-26.12,26.12Z"/>
      </g>
    </symbol>
  </defs>
  <use id="delete-gray" width="788.9" height="1024" transform="translate(292.41 1198.86) scale(1 -1)" xlink:href="#delete-symbol"/>
</svg>