<?xml version="1.0" encoding="UTF-8"?>
<svg id="Layer_1" data-name="Layer 1" xmlns="http://www.w3.org/2000/svg" xmlns:xlink="http://www.w3.org/1999/xlink" viewBox="0 0 1373.73 1373.73">
  <defs>
    <style>
      .cls-1 {
        clip-path: url(#clippath);
      }

      .cls-2 {
        fill: none;
      }

      .cls-2, .cls-3 {
        stroke-width: 0px;
      }
    </style>
    <symbol id="plus-symbol" viewBox="0 0 1024 1024">
      <path class="cls-3" d="m938.67,597.33h-341.33v341.33c0,51.2-34.13,85.33-85.33,85.33s-85.33-34.13-85.33-85.33v-341.33H85.33c-51.2,0-85.33-34.13-85.33-85.33s34.13-85.33,85.33-85.33h341.33V85.33c0-51.2,34.13-85.33,85.33-85.33s85.33,34.13,85.33,85.33v341.33h341.33c51.2,0,85.33,34.13,85.33,85.33s-34.13,85.33-85.33,85.33Z"/>
    </symbol>
    <clipPath id="clippath">
      <rect class="cls-2" x="46.86" y="174.86" width="1280" height="1024"/>
    </clipPath>
  </defs>
  <g class="cls-1">
    <use id="plus-white" width="1024" height="1024" transform="translate(174.86 1198.86) scale(1 -1)" xlink:href="#plus-symbol"/>
  </g>
</svg>