<?xml version="1.0" encoding="UTF-8"?>
<svg id="Layer_1" data-name="Layer 1" xmlns="http://www.w3.org/2000/svg" xmlns:xlink="http://www.w3.org/1999/xlink" viewBox="0 0 1373.73 1373.73">
  <defs>
    <style>
      .cls-1 {
        clip-path: url(#clippath);
      }

      .cls-2 {
        fill: none;
      }

      .cls-2, .cls-3 {
        stroke-width: 0px;
      }
    </style>
    <symbol id="shoppingbag-symbol" viewBox="0 0 750.93 1024">
      <g>
        <path class="cls-3" d="m726.55,731.43h-78.02v190.17c0,9.75-4.88,14.63-9.75,19.5l-97.52,78.02h0c-4.88,0-4.88,4.88-9.75,4.88H219.43q-4.88,0-9.75-4.88h0l-97.52-78.02c-4.88,0-9.75-9.75-9.75-14.63v-195.05H24.38c-14.63,0-24.38-9.75-24.38-24.38V73.14C0,34.13,34.13,0,73.14,0h604.65c39.01,0,73.14,34.13,73.14,73.14v633.9c0,14.63-9.75,24.38-24.38,24.38Zm-126.78,0h-48.76v219.43l48.76-39.01v-180.42Zm-351.09,160.91h253.56v-160.91h-253.56v160.91Zm253.56,48.76h-253.56v34.13h253.56v-34.13h0Zm-351.09-29.26l48.76,39.01v-219.43h-48.76v180.42ZM702.17,73.14c0-14.63-9.75-24.38-24.38-24.38H73.14c-14.63,0-24.38,9.75-24.38,24.38v609.52h653.41V73.14Z"/>
        <path class="cls-3" d="m273.07,238.93c4.88-4.88,9.75-4.88,14.63-4.88h180.42c4.88,0,9.75,0,14.63,4.88l63.39,43.89c4.88,4.88,9.75,9.75,9.75,19.5v126.78c0,9.75-4.88,14.63-9.75,19.5l-63.39,43.89c-4.88,4.88-9.75,4.88-14.63,4.88h-185.3c-4.88,0-9.75,0-14.63-4.88l-63.39-43.89c-4.88-4.88-9.75-9.75-9.75-19.5v-126.78c0-9.75,4.88-14.63,9.75-19.5l68.27-43.89Zm-24.38,175.54l48.76,29.26h160.91l43.89-29.26v-102.4l-43.89-29.26h-165.79l-48.76,29.26,4.88,102.4Z"/>
      </g>
    </symbol>
    <clipPath id="clippath">
      <rect class="cls-2" x="46.86" y="174.86" width="1280" height="1024"/>
    </clipPath>
  </defs>
  <g class="cls-1">
    <use id="shoppingbag-white" width="750.93" height="1024" transform="translate(311.4 1198.86) scale(1 -1)" xlink:href="#shoppingbag-symbol"/>
  </g>
</svg>