<svg xmlns="http://www.w3.org/2000/svg" viewBox="0 0 47.77 35"><path d="M45.36,7.26,41.94,3.88,38.72.69,38,0H9.76L3.37,6.32,0,9.66V25.34l1.15,1.13,4,4,3.52,3.49L9.76,35H38l1.33-1.34L41,32.07l5.4-5.35,1.3-1.28a.52.52,0,0,0,.11-.1V9.66Zm-.17,16.88a.37.37,0,0,1-.12.23Q42.34,27.1,39.6,29.8l-2.53,2.52a.34.34,0,0,1-.27.1H11a.44.44,0,0,1-.32-.13L6.52,28.17C5.35,27,4.18,25.83,3,24.69a1.28,1.28,0,0,1-.43-1c0-4.24,0-8.49,0-12.74a.42.42,0,0,1,.14-.33L6.52,6.81C7.91,5.43,9.31,4.06,10.7,2.67a.37.37,0,0,1,.3-.1H36.76a.43.43,0,0,1,.34.13l3.52,3.5,3.24,3.2,1.24,1.23a.33.33,0,0,1,.09.21Z"/><path d="M36.9,3.15a.37.37,0,0,0-.26-.1H11.11a.36.36,0,0,0-.28.11C8.27,5.73,5.71,8.28,3.16,10.85a.38.38,0,0,0-.11.24V23.9a.33.33,0,0,0,.11.26l7.67,7.67a.39.39,0,0,0,.3.12h25.5a.33.33,0,0,0,.26-.1l7.7-7.71a.37.37,0,0,0,.1-.24q0-6.41,0-12.81a.39.39,0,0,0-.09-.23Zm6.92,20.68-6.39,6.39-.85.85a.37.37,0,0,1-.28.11H11.44a.36.36,0,0,1-.29-.12L4,23.88a.5.5,0,0,1-.16-.4v-12A.44.44,0,0,1,4,11.13l7.19-7.19a.4.4,0,0,1,.31-.13H36.29a.39.39,0,0,1,.3.12l7.24,7.23a.38.38,0,0,1,.12.28q0,6,0,12.1A.36.36,0,0,1,43.82,23.83Z"/><path d="M36.31,4.38A.36.36,0,0,0,36,4.26H11.73a.36.36,0,0,0-.28.11C9.09,6.73,6.74,9.09,4.37,11.45a.38.38,0,0,0-.11.29V23.27a.31.31,0,0,0,.11.26q3.54,3.55,7.1,7.1a.37.37,0,0,0,.24.1H36a.37.37,0,0,0,.28-.11l7.07-7.08a.36.36,0,0,0,.12-.27q0-5.77,0-11.55a.36.36,0,0,0-.12-.28Q39.83,7.92,36.31,4.38Zm6.61,19q-3.41,3.41-6.8,6.8a.33.33,0,0,1-.28.12h-24a.33.33,0,0,1-.27-.12L4.79,23.35a.39.39,0,0,1-.1-.25c0-3.74,0-7.47,0-11.21a.37.37,0,0,1,.1-.25L10.7,5.73c.31-.31.62-.62.92-.94a.36.36,0,0,1,.29-.11h23.9a.44.44,0,0,1,.34.14q3.39,3.4,6.8,6.8a.37.37,0,0,1,.12.3V23A.44.44,0,0,1,42.92,23.39Z"/><path d="M23.44,18.73c0-.17.09-.22.26-.2l.13,0a.3.3,0,0,0,.38-.28.39.39,0,0,0-.51-.46,2.16,2.16,0,0,1-1,0c-.25-.06-.38,0-.47.28a1.39,1.39,0,0,0-.06.19c-.13.62-.27,1.24-.4,1.86s-.28,1.28-.42,1.95a.27.27,0,0,1,0-.1c-.2-.91-.39-1.82-.58-2.73-.07-.36-.14-.72-.24-1.08s-.25-.43-.59-.35a2,2,0,0,1-.85,0,.76.76,0,0,0-.21,0c-.27,0-.41.18-.39.46s.17.32.43.28H19a.18.18,0,0,1,.24.17,2.43,2.43,0,0,1,0,.38c0,1.05,0,2.1,0,3.15a2.45,2.45,0,0,1,0,.27c0,.31-.08.34-.39.29a.31.31,0,0,0-.4.29.37.37,0,0,0,.33.45,2.35,2.35,0,0,0,.26,0c.27,0,.55-.05.82-.05s.39.05.58.06a.32.32,0,0,0,.33-.23c.11-.33-.08-.55-.42-.5s-.32,0-.35-.27a.49.49,0,0,1,0-.12c0-.95,0-1.89,0-2.83,0,0,0-.09,0-.18,0,.09,0,.13.05.17l.48,2.13c.11.5.22,1,.34,1.48.06.26.17.37.38.39a.44.44,0,0,0,.52-.4l.54-2.34c.1-.45.2-.9.31-1.35a.22.22,0,0,1,0,.13c0,.79,0,1.59,0,2.38,0,.21,0,.42,0,.63s-.1.22-.26.18l-.13,0a.3.3,0,0,0-.36.24c-.09.34.13.57.5.51a2.86,2.86,0,0,1,1.09,0,1.8,1.8,0,0,0,.4,0c.23,0,.35-.19.33-.45a.31.31,0,0,0-.35-.3c-.4,0-.41,0-.45-.36V19A1.43,1.43,0,0,1,23.44,18.73Z"/><path d="M38.07,16.38a3.29,3.29,0,0,0,.44-.68,1.65,1.65,0,0,0,.08-.59c0-.12-.09-.2-.21-.23a.26.26,0,0,0-.3.12,2.57,2.57,0,0,0-.19.41.66.66,0,0,1-.7.48,1.23,1.23,0,0,1-.64-.59s0-.07,0-.1c.11-.38.22-.75.35-1.12a8.22,8.22,0,0,1,.3-.83c.11-.24.27-.32.44-.27s.24.17.26.44v0a.33.33,0,0,0,.34.33.35.35,0,0,0,.32-.35,2.43,2.43,0,0,0,0-.38.92.92,0,0,0-.95-.81,1,1,0,0,0-.85.51,3.78,3.78,0,0,0-.48,1.13l-.19.65-.56-1.11.15-.13a1.87,1.87,0,0,0,.71-1.59,1,1,0,0,0-1.49-.9,1,1,0,0,0-.59,1.09c0,.41.14.81.21,1.22h.05l-.09.07a2.1,2.1,0,0,0-.84,2.38,1.34,1.34,0,0,0,2.26.73,2.84,2.84,0,0,0,.23-.25,1.22,1.22,0,0,0,1,.58C37.44,16.62,37.81,16.7,38.07,16.38Zm-3-4.65a.31.31,0,0,1,.6-.06.91.91,0,0,1-.4,1A1.77,1.77,0,0,1,35,11.73Zm.63,3.69a.78.78,0,0,1-.66.44.56.56,0,0,1-.54-.29,1.32,1.32,0,0,1,.41-1.75l.78,1.48A.13.13,0,0,1,35.66,15.42Z"/><path d="M12.41,22.79c-.19.06-.3,0-.39-.19l-1.35-2.38a.2.2,0,0,1,.05-.28c.33-.36.67-.72,1-1.09a.66.66,0,0,1,.7-.29c.23,0,.38-.12.39-.37a.37.37,0,0,0-.39-.39l-.21,0-1,0a4.14,4.14,0,0,0-.61,0c-.25,0-.34.22-.3.47s.19.29.43.26l.3,0-1.51,1.7a.2.2,0,0,0,0,.08l-.05,0c0-.47,0-.94,0-1.41,0-.31.08-.37.37-.32a.33.33,0,0,0,.42-.39c0-.27-.22-.39-.54-.35s-.59.05-.88.05a4.52,4.52,0,0,1-.53-.06.36.36,0,0,0-.39.43c0,.25.16.35.42.32l.12,0a.18.18,0,0,1,.23.16,2.69,2.69,0,0,1,0,.4v3.17a2.07,2.07,0,0,1,0,.35c0,.18-.08.21-.26.19l-.15,0a.28.28,0,0,0-.33.19.44.44,0,0,0,0,.43c.13.17.3.14.48.13a7.72,7.72,0,0,1,.83-.06c.2,0,.4.05.6.06a.36.36,0,0,0,.36-.42.32.32,0,0,0-.42-.32l-.13,0a.17.17,0,0,1-.21-.14.78.78,0,0,1,0-.22v-1a.23.23,0,0,1,0-.11l.58-.68,1.19,2.12-.48,0c-.22,0-.33.06-.38.24a.38.38,0,0,0,.4.52c.23,0,.45-.06.68-.06s.66.05,1,.06a.36.36,0,0,0,.43-.4C12.85,22.89,12.71,22.71,12.41,22.79Z"/><path d="M26.88,11.67c.23,0,.3,0,.34.25v1.86c0,.59,0,1.17,0,1.76,0,.37-.06.42-.43.38a.27.27,0,0,0-.34.21.37.37,0,0,0,.36.53c.36,0,.71-.06,1.06-.06.67,0,1.34,0,2,.07a.42.42,0,0,0,.49-.47c0-.54,0-1.08,0-1.63a.66.66,0,0,0-.06-.27.23.23,0,0,0-.29-.15.47.47,0,0,0-.25.17.53.53,0,0,0-.06.26c0,.29,0,.58,0,.87s-.12.46-.48.47H28.3c-.28,0-.31,0-.32-.31s0-.84,0-1.26,0-.37.37-.37.35,0,.34.35a3.21,3.21,0,0,0,0,.62c0,.18.14.25.32.24s.33-.19.3-.44a11.45,11.45,0,0,1,0-2.19.75.75,0,0,0,0-.3A.31.31,0,0,0,29,12a.28.28,0,0,0-.28.25,1.88,1.88,0,0,0,0,.41c.05.49,0,.56-.51.55-.13,0-.19-.05-.19-.19,0-.33,0-.66,0-1s.07-.32.31-.32h1a.31.31,0,0,1,.34.27,2.71,2.71,0,0,1,0,.41c0,.24,0,.47,0,.7s.26.45.48.31a.39.39,0,0,0,.17-.41,8,8,0,0,1,0-1.55c0-.31-.07-.57-.5-.54S29,11,28.54,11s-1.11,0-1.67-.05a.38.38,0,0,0-.4.19.41.41,0,0,0,0,.44C26.59,11.71,26.72,11.7,26.88,11.67Z"/><path d="M40.29,21.22A.29.29,0,0,0,40,21a.27.27,0,0,0-.27.23,2.08,2.08,0,0,0,0,.43c0,.25,0,.49,0,.74s-.11.35-.35.36-.72,0-1.07,0-.29-.05-.29-.28l0-1.23c0-.43,0-.43.42-.43.26,0,.31.07.29.34s0,.4,0,.6a.28.28,0,0,0,.27.27.28.28,0,0,0,.33-.22.72.72,0,0,0,0-.29,9.93,9.93,0,0,1,0-2,1,1,0,0,0,0-.35.31.31,0,0,0-.61.05,5.43,5.43,0,0,0,0,.57c0,.13,0,.26-.16.29a1.55,1.55,0,0,1-.43,0,.16.16,0,0,1-.12-.12c0-.36,0-.72,0-1.09,0-.21.07-.26.28-.27h1c.25,0,.35.07.38.33s0,.45,0,.68a3.88,3.88,0,0,0,0,.48.27.27,0,0,0,.27.25.3.3,0,0,0,.32-.24,1.2,1.2,0,0,0,0-.38c0-.3,0-.6,0-.9s0-.49,0-.74-.15-.28-.35-.29h-.42c-.58,0-1.17.05-1.75.05-.31,0-.62,0-.92-.06a.36.36,0,0,0-.4.41c0,.26.16.38.43.33s.35,0,.36.31v1.82h0c0,.6,0,1.2,0,1.79,0,.34-.07.36-.4.33a.45.45,0,0,0-.3.09.36.36,0,0,0-.06.42.33.33,0,0,0,.32.23,2.32,2.32,0,0,0,.37,0c.33,0,.66-.05,1-.05l1.72.06c.35,0,.5-.13.5-.49V21.47A1.09,1.09,0,0,0,40.29,21.22Z"/><path d="M10.28,11.67c.24,0,.31,0,.34.25a.57.57,0,0,1,0,.13v1.74c0,.58,0,1.16,0,1.74,0,.32,0,.47-.43.39-.19,0-.29,0-.35.22a.39.39,0,0,0,.46.52,5.16,5.16,0,0,1,1.57,0,1.78,1.78,0,0,0,2-1.15,4.42,4.42,0,0,0,.06-3.22A1.84,1.84,0,0,0,11.8,11a5.31,5.31,0,0,1-1.49,0,.38.38,0,0,0-.42.15.43.43,0,0,0,0,.46A.31.31,0,0,0,10.28,11.67Zm1.09.37c0-.25,0-.3.29-.3a4.42,4.42,0,0,1,.63,0,1.11,1.11,0,0,1,.92.76,3.53,3.53,0,0,1,.21,1.67,4.2,4.2,0,0,1-.11.71,1.25,1.25,0,0,1-1.61,1c-.33-.05-.33-.06-.33-.39V12Z"/><path d="M17.66,22.79c-.34.05-.38,0-.49-.31l0-.13c-.3-1.1-.6-2.2-.91-3.3-.08-.3-.16-.61-.26-.91a.42.42,0,0,0-.49-.34.41.41,0,0,0-.42.36c-.19.61-.36,1.23-.53,1.84-.25.86-.5,1.72-.74,2.59,0,.16-.12.24-.31.2a.3.3,0,0,0-.39.29c0,.31.15.49.47.45s.6-.05.9-.06.35.06.53.06a.35.35,0,0,0,.37-.42c0-.25-.16-.36-.42-.32h-.15c-.25.06-.26-.08-.22-.25s.15-.55.23-.82a.17.17,0,0,1,.2-.14c.16,0,.32,0,.49,0s.33,0,.5,0a.15.15,0,0,1,.18.12c.08.32.17.63.25.94,0,.12,0,.17-.14.16l-.26,0a.3.3,0,0,0-.36.22.38.38,0,0,0,.37.53,1.51,1.51,0,0,0,.3,0h1l.4,0a.35.35,0,0,0,.34-.41A.32.32,0,0,0,17.66,22.79ZM15,20.84l.43-1.73h0l.43,1.73Z"/><path d="M31.48,21.29a.29.29,0,0,0-.33-.27.3.3,0,0,0-.31.27,1.64,1.64,0,0,0,0,.23c0,.28,0,.57,0,.85s-.14.42-.44.43h-1c-.21,0-.25,0-.25-.25,0-.62,0-1.24,0-1.86h0c0-.61,0-1.23,0-1.84,0-.29.09-.37.36-.3s.48-.21.42-.46-.25-.32-.58-.28a6.55,6.55,0,0,1-.89.05c-.19,0-.37-.05-.55-.05s-.33.19-.31.44a.31.31,0,0,0,.36.31c.38,0,.39,0,.44.34V22a2.53,2.53,0,0,1,0,.48c-.05.37-.1.38-.38.3a.28.28,0,0,0-.37.2.37.37,0,0,0,.37.54h.25c.33,0,.65-.06,1-.05.61,0,1.22,0,1.82.06a.33.33,0,0,0,.39-.27,1.83,1.83,0,0,0,0-.47c0-.29,0-.57,0-.85S31.5,21.5,31.48,21.29Z"/><path d="M35.87,21.92c0-.21,0-.43,0-.64s-.14-.25-.31-.26a.3.3,0,0,0-.32.26,1.09,1.09,0,0,0,0,.26c0,.27,0,.55,0,.82s-.14.43-.45.44h-.89c-.29,0-.33,0-.33-.32,0-1.21,0-2.42,0-3.64,0-.28.09-.36.36-.29s.47-.22.42-.45-.24-.33-.56-.29a8.46,8.46,0,0,1-.87.05c-.18,0-.37-.05-.56-.05a.45.45,0,0,0-.26.12.46.46,0,0,0,0,.49.34.34,0,0,0,.38.13c.27-.05.34,0,.35.27,0,.58,0,1.16,0,1.74h0c0,.4,0,.79,0,1.19s0,.6-.07.9c0,.14-.09.2-.26.16a.7.7,0,0,0-.35,0c-.12.05-.17.29-.12.45a.32.32,0,0,0,.34.24h.3c.32,0,.64-.06,1-.05l1.71.06c.38,0,.5-.09.55-.46a1.07,1.07,0,0,0,0-.25C35.88,22.52,35.87,22.22,35.87,21.92Z"/><path d="M22.82,15.64c-.05.32-.07.33-.38.28a.31.31,0,0,0-.39.25.37.37,0,0,0,.41.49c.38,0,.76-.06,1.15-.06.61,0,1.22,0,1.84.07a.37.37,0,0,0,.43-.31,1.57,1.57,0,0,0,0-.43c0-.34,0-.68,0-1a3.68,3.68,0,0,0,0-.47.3.3,0,0,0-.3-.29.3.3,0,0,0-.33.23,1,1,0,0,0,0,.25c0,.3,0,.61,0,.91s-.13.37-.4.38H24c-.44,0-.45,0-.45-.46V13.86h0c0-.63,0-1.27,0-1.91,0-.28.09-.32.37-.27a.3.3,0,0,0,.4-.26.37.37,0,0,0-.32-.49,1,1,0,0,0-.24,0c-.31,0-.61,0-.92,0s-.32-.05-.48-.06a.32.32,0,0,0-.35.27c-.09.33.1.52.44.47s.31,0,.33.27,0,.28,0,.42c0,.85,0,1.71,0,2.56A5.78,5.78,0,0,1,22.82,15.64Z"/><path d="M18.42,15.69c0,.27-.07.28-.35.23s-.35,0-.4.24a.36.36,0,0,0,.39.5c.39,0,.78-.06,1.17-.06.61,0,1.22,0,1.84.07a.37.37,0,0,0,.42-.3,1.58,1.58,0,0,0,0-.38c0-.34,0-.68,0-1a4.86,4.86,0,0,0,0-.54.32.32,0,0,0-.63,0,2.22,2.22,0,0,0,0,.45c0,.23,0,.45,0,.68s-.13.4-.44.41-.65,0-1,0-.25,0-.25-.24c0-.61,0-1.22,0-1.83h0c0-.63,0-1.27,0-1.9,0-.28.09-.33.36-.28s.39-.06.41-.27-.08-.45-.31-.48a1.23,1.23,0,0,0-.27,0c-.3,0-.6,0-.9,0-.15,0-.31-.05-.47-.06a.32.32,0,0,0-.35.23c-.06.17,0,.41.11.47a.57.57,0,0,0,.32,0c.24,0,.31,0,.33.27s0,.26,0,.4c0,.89,0,1.77,0,2.66A5.32,5.32,0,0,1,18.42,15.69Z"/><path d="M15.28,11.67c.23,0,.3,0,.34.25V13.8h0c0,.59,0,1.18,0,1.77,0,.33-.07.4-.4.35a.29.29,0,0,0-.31.1.41.41,0,0,0,0,.45.34.34,0,0,0,.36.2,5.41,5.41,0,0,1,.58-.07c.31,0,.62,0,.93.06a.37.37,0,0,0,.42-.48c0-.23-.18-.3-.47-.25s-.27,0-.3-.21,0-.23,0-.35V12.69a5.4,5.4,0,0,1,0-.7c0-.33.08-.36.4-.3a.31.31,0,0,0,.38-.3c0-.33-.16-.5-.52-.45S16,11,15.73,11a3.62,3.62,0,0,1-.46-.06.36.36,0,0,0-.39.17.41.41,0,0,0,0,.46C15,11.71,15.13,11.7,15.28,11.67Z"/><path d="M26.71,22.79c-.28.05-.35,0-.36-.29,0-.61,0-1.22,0-1.82s0-1.23,0-1.84c0-.3.07-.34.38-.29a.31.31,0,0,0,.4-.29c0-.26-.11-.48-.33-.45a6.75,6.75,0,0,1-1.68,0c-.16,0-.27.1-.32.26s.08.57.44.48.32,0,.34.26,0,.31,0,.47c0,.93,0,1.86,0,2.8a4.84,4.84,0,0,1,0,.53c0,.14-.1.24-.27.19l-.13,0a.3.3,0,0,0-.36.24c-.09.35.14.58.53.5a3.29,3.29,0,0,1,1.25,0,.65.65,0,0,0,.31,0,.39.39,0,0,0,.22-.5C27.07,22.83,26.94,22.76,26.71,22.79Z"/></svg>
